<?xml version="1.0" encoding="utf-8"?>
<!-- Generator: Adobe Illustrator 16.0.0, SVG Export Plug-In . SVG Version: 6.00 Build 0)  -->
<!DOCTYPE svg PUBLIC "-//W3C//DTD SVG 1.1//EN" "http://www.w3.org/Graphics/SVG/1.1/DTD/svg11.dtd">
<svg version="1.1" id="Capa_1" xmlns="http://www.w3.org/2000/svg" xmlns:xlink="http://www.w3.org/1999/xlink" x="0px" y="0px"
	 width="27.34px" height="50px" viewBox="0 0 27.34 50" enable-background="new 0 0 27.34 50" xml:space="preserve">
<path opacity="0.2" fill="#363733" d="M23,22.648c-0.597,0-0.965,0-0.965,0v-7.829C21.985,5.222,15.441,0,7.484,0
	C4.813,0,2.236,0.619,0,1.794v9.475c1.115-3.132,3.714-5.3,7.344-5.3c4.867,0,7.949,3.481,7.949,8.955l0.002,7.725H0V50
	c7.674,0,16.661,0,22.764,0c0.105,0,4.576-0.499,4.576-4.975V27.363C27.34,23.132,23.111,22.648,23,22.648z M10.915,43.109H3.777
	l1.482-7.285c-1.059-0.703-1.765-1.932-1.765-3.332c0-2.191,1.722-3.969,3.843-3.969c2.123,0,3.848,1.777,3.848,3.969
	c0,1.4-0.703,2.626-1.766,3.332L10.915,43.109z"/>
</svg>
