<?xml version="1.0" encoding="utf-8"?>
<!-- Generator: Adobe Illustrator 16.0.0, SVG Export Plug-In . SVG Version: 6.00 Build 0)  -->
<!DOCTYPE svg PUBLIC "-//W3C//DTD SVG 1.1//EN" "http://www.w3.org/Graphics/SVG/1.1/DTD/svg11.dtd">
<svg version="1.1" id="Capa_1" xmlns="http://www.w3.org/2000/svg" xmlns:xlink="http://www.w3.org/1999/xlink" x="0px" y="0px"
	 width="180px" height="38.325px" viewBox="0 0 180 38.325" enable-background="new 0 0 180 38.325" xml:space="preserve">
<g>
	<g>
		<path fill-rule="evenodd" clip-rule="evenodd" fill="#363733" d="M13.978,32.359c0.728-0.067,1.453-0.111,2.2-0.111
			c0.728,0,1.456,0.044,2.182,0.111l0,0l0.089-0.792l-0.84-0.023l0,0c-0.175-0.022-0.373-0.022-0.55-0.11
			c-0.242-0.11-0.283-0.263-0.283-0.572c0-0.22,0.021-0.417,0.086-0.64l0,0l2.201-10.192l2.886,12.594h0.505l7.309-13.429
			L28.11,29.983l0,0c-0.064,0.329-0.109,0.658-0.219,1.009c-0.132,0.289-0.177,0.375-0.483,0.441
			c-0.374,0.134-0.815,0.134-1.214,0.134l0,0l-0.064,0.792l0,0c1.013-0.067,2.046-0.111,3.104-0.111
			c1.035,0,2.047,0.044,3.062,0.111l0,0l0.109-0.792h-0.526l0,0c-0.331-0.023-0.662-0.023-0.97-0.134
			c-0.221-0.066-0.332-0.285-0.332-0.548c0-0.354,0.066-0.75,0.133-1.104l0,0l0.088-0.857l1.519-9.643l0,0
			c0.111-0.441,0.177-0.86,0.418-1.255c0.398-0.397,0.992-0.221,1.499-0.33l0,0l0.11-0.794l0,0
			c-0.771,0.066-1.521,0.109-2.288,0.109c-0.795,0-1.541-0.043-2.293-0.109l0,0l-6.23,11.428l-2.067-9.117l0,0
			c-0.153-0.748-0.333-1.54-0.51-2.311c-0.746,0.066-1.472,0.109-2.221,0.109s-1.475-0.043-2.226-0.109l0,0l-0.086,0.794
			l0.374,0.044l0,0c0.463,0.045,0.924,0.045,1.319,0.239c0.221,0.135,0.287,0.441,0.287,0.705c0,0.221-0.264,1.301-0.331,1.609l0,0
			l-2.398,9.908l0,0c-0.135,0.571-0.242,0.99-0.793,1.209l0,0l-0.616,0.156h-0.242L13.978,32.359L13.978,32.359z"/>
		<path fill-rule="evenodd" clip-rule="evenodd" fill="#363733" d="M38.657,19.589c0.86,0,1.366-0.772,1.366-1.696
			c0-0.704-0.486-1.254-1.104-1.254c-0.834,0-1.384,0.814-1.384,1.649C37.536,19.082,37.953,19.589,38.657,19.589L38.657,19.589
			L38.657,19.589z M34.497,24.983c0.286-0.243,1.498-1.102,1.781-1.102c0.221,0,0.221,0.221,0.221,0.375
			c0,0.287-0.044,0.572-0.109,0.814l0,0l-0.153,0.837l-0.904,3.83l-0.131,0.748l0,0c-0.11,0.55-0.156,1.035-0.044,1.564
			c0.066,0.133,0.132,0.283,0.198,0.418c0.176,0.109,0.352,0.154,0.507,0.154c0.174,0,0.396-0.021,0.57-0.087
			c0.354-0.11,0.728-0.353,0.992-0.551c0.77-0.485,1.474-1.058,2.224-1.629l0,0l-0.242-0.575l-1.103,0.728l0,0
			c-0.064,0.068-0.46,0.307-0.548,0.307c-0.2,0-0.287-0.154-0.287-0.351c0-0.462,0.109-1.035,0.22-1.475l0,0l0.594-2.619
			l0.596-2.335l0,0c0.107-0.529,0.222-0.969,0.222-1.496c0-0.242-0.114-0.598-0.333-0.704c-0.065-0.132-0.263-0.132-0.418-0.132
			c-0.154,0-0.354,0.063-0.44,0.132c-1.122,0.371-2.685,1.85-3.676,2.596l0,0L34.497,24.983L34.497,24.983L34.497,24.983z"/>
		<path fill-rule="evenodd" clip-rule="evenodd" fill="#363733" d="M45.813,22.694c0.352,0,0.77,0.198,1.012,0.483
			c0.308,0.329,0.352,0.947,0.352,1.388c0,1.408-0.418,3.81-2.07,3.81c-1.1,0-1.497-0.883-1.497-1.962
			c0-0.684,0.199-1.717,0.442-2.354C44.382,23.221,44.976,22.694,45.813,22.694L45.813,22.694L45.813,22.694L45.813,22.694z
			 M45.395,33.591c0.552,0.417,1.277,0.992,1.277,1.829c0,1.518-1.52,2.09-2.644,2.09c-1.298,0-2.794-0.638-2.794-2.311
			c0-1.322,0.944-2.048,1.936-2.556c0.177-0.086,0.373-0.198,0.552-0.285l0,0L45.395,33.591L45.395,33.591z M42.951,32.117
			c-0.815,0.287-1.455,0.506-2.179,1.035c-0.684,0.527-1.343,1.452-1.343,2.4c0,0.879,0.724,1.869,1.452,2.225
			c0.925,0.415,1.871,0.548,2.862,0.548c2.069,0,5.04-1.033,5.04-3.765c0-1.144-0.814-1.938-1.585-2.51l0,0l-1.718-1.365
			l-0.11-0.154l0,0c-0.265-0.285-0.44-0.439-0.284-0.881c0.351-0.439,0.836-0.616,1.297-0.837c0.705-0.33,1.65-0.726,2.114-1.388
			c0.619-0.858,0.859-1.759,0.859-2.817c0-0.329-0.088-0.704-0.154-1.035c0-0.066-0.045-0.108-0.045-0.177l0,0l1.763,0.089
			l0.199-1.124l-0.088-0.174l-1.521,0.044l-1.389-0.066l-0.174-0.066l0,0c-0.575-0.242-1.035-0.395-1.674-0.395
			c-0.594,0-1.101,0.284-1.629,0.503c-1.079,0.443-1.916,0.704-2.511,1.896c-0.418,0.75-0.617,1.434-0.617,2.333
			c0,2.092,1.453,2.753,3.149,2.731l0,0l-0.463,0.331l-1.342,0.923l0,0c-0.11,0.221-0.11,0.507-0.068,0.75
			c0.111,0.307,0.265,0.596,0.507,0.792l0,0L42.951,32.117L42.951,32.117L42.951,32.117z"/>
		<path fill-rule="evenodd" clip-rule="evenodd" fill="#363733" d="M51.34,24.652l0.264-0.2l0,0
			c0.241-0.173,1.079-0.856,1.342-0.592c0.046,0.063,0.089,0.154,0.11,0.265c0.021,0.483-0.064,0.967-0.176,1.452l0,0l-0.398,1.938
			l-0.395,1.674l0,0c-0.2,0.749-0.396,1.429-0.396,2.223c0,0.485,0.109,0.904,0.529,1.147c0.262,0.108,0.351,0.132,0.616,0.064
			c1.804-0.396,3.809-3.037,4.732-4.712c0.111-0.175,0.176-0.353,0.287-0.55l0,0L57.24,29.85l0,0
			c-0.155,0.658-0.267,1.32-0.267,2.002c0,0.287,0.09,0.573,0.353,0.706c0.135,0.02,0.242,0.064,0.375,0.064
			c0.089-0.045,0.221-0.045,0.33-0.087c1.167-0.527,2.158-1.365,3.128-2.204l0,0l-0.221-0.638L60.034,30.4l0,0
			c-0.352,0.241-0.902,0.485-0.902-0.265c0-0.09,0.244-1.212,0.287-1.432l0,0l0.463-2.158l0.528-2.114l0.241-0.967l0.264-0.971l0,0
			c0.023-0.152,0.088-0.287,0.109-0.439l0,0l-0.152-0.175l0,0c-0.704,0.175-1.434,0.418-2.18,0.396l0,0l-0.021,0.219l0,0
			c-0.133,1.167-0.287,1.871-0.682,2.973c-0.354,1.145-0.729,1.915-1.367,2.908c-0.354,0.592-1.54,2.267-2.201,2.267
			c-0.197,0-0.265-0.089-0.372-0.266c0-0.505,0.107-1.013,0.219-1.494l0,0l1.101-4.779l0,0c0.11-0.441,0.197-0.86,0.197-1.3
			c0-0.483-0.067-0.77-0.263-0.923c-0.179-0.176-0.463-0.176-0.882,0c-1.255,0.439-2.289,1.387-3.347,2.156l0,0L51.34,24.652
			L51.34,24.652z"/>
		<path fill-rule="evenodd" clip-rule="evenodd" fill="#363733" d="M65.341,26.016c0.263-1.232,0.858-3.235,2.292-3.235
			c0.592,0,0.922,0.529,0.922,1.143c0,0.772-0.396,1.456-0.813,2.006c-0.506,0.638-1.301,0.993-2.006,1.189
			c-0.24,0.042-0.462,0.11-0.683,0.198l0,0L65.341,26.016L65.341,26.016L65.341,26.016z M69.634,29.67
			c-0.793,0.597-2.244,1.521-3.214,1.521c-1.033,0-1.54-0.684-1.54-1.807c0-0.462,0.044-0.991,0.086-1.475
			c0.464-0.11,0.947-0.132,1.366-0.285c0.615-0.288,1.301-0.465,1.915-0.773c1.299-0.658,2.201-1.585,2.201-3.257
			c0-1.234-0.837-1.892-1.914-1.892c-0.464,0-1.057,0.176-1.477,0.351c-0.308,0.152-0.594,0.307-0.879,0.485
			c-0.331,0.219-0.661,0.417-0.97,0.658c-1.298,0.969-1.717,1.894-2.137,3.523c-0.197,0.814-0.506,2.269-0.506,3.104
			c0,1.807,0.839,2.798,2.51,2.798c1.827,0,3.281-1.32,4.756-2.311l0,0L69.634,29.67L69.634,29.67z"/>
		<path fill-rule="evenodd" clip-rule="evenodd" fill="#363733" d="M72.65,28.966c-0.153,0.75-0.307,1.498-0.307,2.292
			c0,0.548,0.065,1.364,0.77,1.364c0.461,0,0.946-0.243,1.343-0.506l0,0l0.878-0.596l0,0c0.552-0.351,1.059-0.814,1.587-1.231l0,0
			l-0.286-0.619l0,0c-0.242,0.286-0.551,0.486-0.837,0.661l0,0l-0.242,0.133l0,0c-0.153,0.112-0.372,0.267-0.528,0.267
			c-0.265,0-0.306-0.267-0.306-0.485c0-0.529,0.129-1.279,0.24-1.827l0,0l1.848-9.206l0,0c0.223-1.013,0.421-2.023,0.618-3.017l0,0
			l-0.223-0.263l0,0c-1.342,0.55-2.727,0.813-4.114,1.035l0,0l-0.089,0.684h0.795l0,0c0.263,0.044,0.614,0.021,0.813,0.263
			c0.177,0.241,0,0.814-0.044,1.102l0,0l-0.154,0.988l-0.526,2.844l-0.706,3.278L72.65,28.966L72.65,28.966z"/>
		<path fill-rule="evenodd" clip-rule="evenodd" fill="#363733" d="M82.602,32.359c1.035-0.067,2.068-0.111,3.126-0.111
			s2.094,0.044,3.127,0.111l0,0l0.088-0.792l-0.618-0.023l0,0c-0.57-0.044-1.143,0.046-1.143-0.771c0-0.287,0.045-0.571,0.065-0.836
			l0,0l0.353-2.379l0.131-0.837l0,0c0.091-0.705,0.198-1.386,0.287-2.046l0,0h5.879l-0.814,4.952l0,0
			c-0.112,0.483-0.199,0.989-0.331,1.452c-0.046,0.091-0.108,0.156-0.134,0.243c-0.064,0.044-0.107,0.088-0.176,0.11
			c-0.438,0.156-0.945,0.11-1.407,0.134l0,0l-0.131,0.792l0,0c1.056-0.067,2.134-0.111,3.192-0.111c1.077,0,2.155,0.044,3.189,0.111
			l0,0l0.135-0.792l-0.529-0.023l0,0c-0.329,0-0.615,0-0.925-0.11c-0.375-0.131-0.397-0.197-0.397-0.683
			c0-0.419,0.066-0.836,0.131-1.253l0,0l0.11-0.947l1.235-7.752l0,0c0.131-0.726,0.24-1.474,0.461-2.224
			c0.045-0.176,0.156-0.64,0.332-0.747c0.414-0.199,1.012-0.088,1.432-0.132l0,0l0.107-0.794l0,0
			c-1.036,0.066-2.092,0.109-3.126,0.109c-1.058,0-2.112-0.043-3.125-0.109l0,0l-0.132,0.794l0.615,0.044l0,0
			c0.375,0.045,0.794,0,1.102,0.263c0.152,0.263,0.132,0.508,0.088,0.793l0,0l-0.266,1.829l0,0
			c-0.154,0.988-0.307,1.957-0.438,2.948l0,0h-5.902l0.794-4.338l0,0c0.307-1.716,0.329-1.495,1.916-1.539l0,0l0.131-0.794l0,0
			c-1.058,0.066-2.092,0.109-3.147,0.109c-1.08,0-2.115-0.043-3.149-0.109l0,0l-0.154,0.794l1.145,0.109l0,0
			c0.442,0.044,0.683,0.066,0.683,0.659c0,0.331-0.045,0.662-0.089,0.992l0,0l-0.264,1.695l-1.233,7.706l-0.241,1.388l0,0
			c-0.066,0.415-0.088,0.925-0.463,1.121c-0.396,0.223-0.99,0.154-1.43,0.2l0,0L82.602,32.359L82.602,32.359z"/>
		<path fill-rule="evenodd" clip-rule="evenodd" fill="#363733" d="M102.063,26.016c0.265-1.232,0.858-3.235,2.29-3.235
			c0.594,0,0.925,0.529,0.925,1.143c0,0.772-0.397,1.456-0.816,2.006c-0.507,0.638-1.298,0.993-2.001,1.189
			c-0.241,0.042-0.462,0.11-0.685,0.198l0,0L102.063,26.016L102.063,26.016L102.063,26.016z M106.355,29.67
			c-0.793,0.597-2.244,1.521-3.191,1.521c-1.057,0-1.563-0.684-1.563-1.807c0-0.462,0.047-0.991,0.087-1.475
			c0.463-0.11,0.946-0.132,1.366-0.285c0.617-0.288,1.299-0.465,1.916-0.773c1.299-0.658,2.2-1.585,2.2-3.257
			c0-1.234-0.835-1.892-1.917-1.892c-0.459,0-1.053,0.176-1.474,0.351c-0.308,0.152-0.596,0.307-0.858,0.485
			c-0.352,0.219-0.682,0.417-0.99,0.658c-1.299,0.969-1.716,1.894-2.135,3.523c-0.178,0.814-0.487,2.269-0.487,3.104
			c0,1.807,0.817,2.798,2.491,2.798c1.825,0,3.279-1.32,4.754-2.311l0,0L106.355,29.67L106.355,29.67z"/>
		<path fill-rule="evenodd" clip-rule="evenodd" fill="#363733" d="M108.426,24.915c0.221-0.219,1.191-0.991,1.434-0.991
			c0.305,0,0.353,0.267,0.353,0.528c0,0.309-0.092,0.707-0.112,1.038l0,0l-0.482,2.84l-0.42,1.96l0,0
			c-0.154,0.702-0.33,1.386-0.551,2.069l0,0l0.242,0.264l0,0c0.483-0.243,1.035-0.264,1.586-0.352
			c0.195-0.023,0.373-0.044,0.594-0.069l0,0l0.088-0.811l0.219-1.28l0.289-1.253l0,0c0.173-0.639,0.241-0.991,0.506-1.629
			c0.441-1.035,1.013-2.6,2.246-2.6c0.354,0,0.594,0.091,0.856,0.31c0.046,0.044,0.114,0.065,0.155,0.109l0,0l0.242-0.134l0,0
			c0-1.011,0.176-2.022,0.396-3.059c-0.332-0.152-0.68-0.152-0.99-0.046c-0.289,0.088-0.552,0.265-0.816,0.509
			c-0.508,0.439-0.923,1.121-1.209,1.717c-0.486,0.903-0.924,1.825-1.279,2.772l0,0l-0.149,0.09l0.173-0.682l0.11-0.574l0.396-1.871
			l0,0c0.111-0.529,0.264-1.145,0.067-1.65c-0.022-0.088-0.067-0.179-0.156-0.241c-0.152-0.176-0.396-0.176-0.636-0.069
			c-0.244,0.069-0.485,0.2-0.64,0.311c-0.685,0.461-1.278,0.925-1.894,1.452c-0.289,0.265-0.572,0.529-0.881,0.772l0,0
			L108.426,24.915L108.426,24.915z"/>
		<path fill-rule="evenodd" clip-rule="evenodd" fill="#363733" d="M116.219,24.852c0.464-0.354,0.928-0.816,1.479-0.929
			c0.175,0.022,0.24,0.201,0.24,0.377c-0.045,0.219-0.045,0.439-0.065,0.66l0,0l-0.087,0.727l-0.266,1.474l-0.373,1.763
			l-0.178,0.639l-0.154,0.483l0,0c-0.176,0.686-0.353,1.365-0.596,2.049l0,0l0.199,0.265l0,0c0.704-0.157,1.432-0.374,2.158-0.396
			c0.021-0.287,0.088-0.571,0.133-0.858c0.109-0.443,0.197-0.837,0.284-1.254c0.066-0.156,0.154-0.421,0.243-0.728
			c0.373-1.147,0.728-2.048,1.408-3.041c0.418-0.571,1.674-2.467,2.487-2.111c0.065,0.044,0.109,0.088,0.134,0.176
			c0.198,0.285-0.068,1.146-0.156,1.475l0,0l-1.012,4.316l0,0c-0.088,0.419-0.24,1.099-0.24,1.496c0,0.419-0.045,0.617,0.219,0.971
			c0.068,0.064,0.221,0.154,0.463,0.219c0.086,0,0.199,0,0.396-0.021c1.254-0.419,2.243-1.39,3.366-2.29l0,0l-0.219-0.596l0,0
			c-0.284,0.329-1.474,1.301-1.763,0.969c-0.24-0.199,0.023-1.168,0.092-1.475l0,0l0.152-0.684l0.089-0.439l0.11-0.462l0.549-2.313
			l0.354-1.673l0,0c0.088-0.397,0.108-0.55,0.108-0.989c0-0.331-0.152-0.684-0.462-0.794c-0.088-0.11-0.222-0.135-0.353-0.152
			c-0.13,0-0.241,0.018-0.373,0.063c-0.267,0.09-0.507,0.222-0.726,0.332c-1.279,0.638-3.193,2.622-3.922,3.943l0,0l-0.572,1.077
			l0.597-2.6l0,0c0.109-0.615,0.329-1.518,0.329-2.134c0-0.221,0-0.353-0.175-0.506c-0.09-0.113-0.198-0.134-0.286-0.158
			c-0.135-0.018-0.243,0-0.375,0.024c-0.264,0.09-0.529,0.221-0.793,0.396c-0.551,0.308-1.079,0.769-1.388,1.035
			c-0.462,0.352-0.879,0.704-1.298,1.123l0,0L116.219,24.852L116.219,24.852z"/>
		<path fill-rule="evenodd" clip-rule="evenodd" fill="#363733" d="M136.387,18.51c0.332-0.245,0.814-0.464,0.947-0.927
			c0.109-0.505-0.133-1.058-0.572-1.229c-0.178-0.112-0.354-0.112-0.549-0.047c-0.176,0.047-0.354,0.154-0.531,0.308
			c-0.35,0.287-0.639,0.705-0.857,0.969l0,0l-2.289,2.731h0.969L136.387,18.51L136.387,18.51z M134.516,24.036
			c-0.352,2.265-2.006,5.416-3.742,6.715c-0.089,0.022-0.199,0.064-0.266,0.043c-0.107-0.043-0.198-0.133-0.242-0.217
			c-0.064-0.201-0.108-0.42-0.108-0.64c0-0.795,0.308-2.201,0.485-2.995c0.263-1.167,0.551-2.423,1.143-3.436
			c0.31-0.417,0.793-0.638,1.277-0.638s1.148,0.265,1.563,0.508l0,0L134.516,24.036L134.516,24.036L134.516,24.036z M135.969,22.297
			c-0.637-0.31-1.254-0.594-1.98-0.594c-0.574,0-0.729-0.024-1.256,0.217c-0.924,0.354-2.379,1.719-3.149,2.425
			c-0.108,0.106-0.196,0.263-0.265,0.415c-0.483,0.86-0.725,1.873-0.97,2.84c-0.284,1.149-0.46,2.07-0.46,3.327
			c0,0.704,0.288,1.695,1.08,1.695c2.07,0,4.291-3.656,5.219-5.483l0,0l-0.221,0.948l-0.113,0.483l-0.371,1.805l0,0
			c-0.068,0.355-0.156,0.772-0.156,1.146c0,0.375,0.088,0.794,0.375,1.037c0.088,0.044,0.221,0.064,0.309,0.064
			c0.705,0,1.301-0.421,1.871-0.837c0.572-0.395,1.078-0.9,1.588-1.342l0,0l-0.223-0.706l0,0c-0.287,0.331-0.641,0.552-0.965,0.814
			c-0.18,0.089-0.377,0.263-0.6,0.221c-0.088-0.042-0.154-0.177-0.176-0.265c-0.066-0.397,0.047-0.881,0.135-1.277l0,0l1.141-5.725
			l0.332-1.319l0,0c0.045-0.066,0.088-0.133,0.088-0.221l0,0l-0.307-0.287L135.969,22.297L135.969,22.297L135.969,22.297z"/>
		<path fill-rule="evenodd" clip-rule="evenodd" fill="#363733" d="M138.875,24.852c0.439-0.354,0.904-0.816,1.475-0.929
			c0.154,0.022,0.242,0.201,0.242,0.377c-0.064,0.219-0.064,0.439-0.088,0.66l0,0l-0.066,0.727l-0.264,1.474l-0.395,1.763
			l-0.156,0.639l-0.154,0.483l0,0c-0.197,0.686-0.377,1.365-0.594,2.049l0,0l0.178,0.265l0,0c0.701-0.157,1.43-0.374,2.156-0.396
			c0.021-0.287,0.088-0.571,0.152-0.858c0.111-0.443,0.178-0.837,0.289-1.254c0.066-0.156,0.129-0.421,0.242-0.728
			c0.352-1.147,0.725-2.048,1.387-3.041c0.418-0.571,1.674-2.467,2.51-2.111c0.064,0.044,0.086,0.088,0.111,0.176
			c0.221,0.285-0.047,1.146-0.135,1.475l0,0l-1.033,4.316l0,0c-0.068,0.419-0.242,1.099-0.242,1.496
			c0,0.419-0.045,0.617,0.219,0.971c0.09,0.064,0.223,0.154,0.463,0.219c0.109,0,0.221,0,0.42-0.021
			c1.252-0.419,2.244-1.39,3.344-2.29l0,0l-0.197-0.596l0,0c-0.311,0.329-1.477,1.301-1.76,0.969
			c-0.244-0.199,0.02-1.168,0.086-1.475l0,0l0.133-0.684l0.111-0.439l0.086-0.462l0.574-2.313l0.352-1.673l0,0
			c0.064-0.397,0.088-0.55,0.088-0.989c0-0.331-0.131-0.684-0.439-0.794c-0.109-0.11-0.221-0.135-0.377-0.152
			c-0.107,0-0.242,0.018-0.352,0.063c-0.262,0.09-0.506,0.222-0.727,0.332c-1.297,0.638-3.193,2.622-3.92,3.943l0,0l-0.592,1.077
			l0.615-2.6l0,0c0.088-0.615,0.311-1.518,0.311-2.134c0-0.221,0-0.353-0.178-0.506c-0.064-0.113-0.176-0.134-0.285-0.158
			c-0.111-0.018-0.244,0-0.354,0.024c-0.266,0.09-0.527,0.221-0.814,0.396c-0.551,0.308-1.053,0.769-1.367,1.035
			c-0.461,0.352-0.9,0.704-1.318,1.123l0,0L138.875,24.852L138.875,24.852z"/>
		<path fill-rule="evenodd" clip-rule="evenodd" fill="#363733" d="M156.996,24.852c-0.375,1.406-0.949,2.773-1.762,3.939
			c-0.266,0.375-0.529,0.748-0.836,1.101c-0.221,0.243-0.902,0.881-1.213,0.881c-0.244,0-0.33-0.022-0.463-0.265
			c-0.109-0.858,0.023-1.759,0.154-2.619c0.111-0.508,0.199-0.991,0.332-1.477c0.309-1.077,0.615-2.246,1.189-3.191
			c0.395-0.329,0.836-0.373,1.297-0.373c0.705,0,0.99,0.108,1.652,0.394l0,0L156.996,24.852L156.996,24.852z M156.84,17.652
			c0.859,0.063,1.254-0.112,1.166,0.988c-0.088,1.102-0.24,2.203-0.416,3.28c-0.465-0.154-0.904-0.217-1.365-0.217
			c-0.418,0-0.662,0.018-1.057,0.217c-0.355,0.134-0.639,0.311-0.969,0.485c-0.816,0.486-1.939,1.323-2.445,2.159
			c-0.527,0.857-0.99,2.554-1.145,3.566c-0.154,0.835-0.24,1.539-0.24,2.399c0,0.594,0.086,1.19,0.416,1.671
			c0.111,0.113,0.242,0.224,0.375,0.311c0.199,0.065,0.396,0.11,0.594,0.11c0.178,0,0.375-0.064,0.572-0.154
			c1.939-1.035,3.262-3.039,4.359-5.043c0.066-0.132,0.111-0.265,0.178-0.395l0,0l-0.771,3.546l0,0
			c-0.045,0.263-0.133,0.726-0.133,1.013c0,0.571,0.221,1.033,0.793,1.033c1.014,0,2.576-1.563,3.391-2.223l0,0l-0.176-0.619
			l-0.531,0.376l0,0c-0.195,0.133-0.744,0.616-0.941,0.616c-0.225,0-0.334-0.156-0.334-0.373c0-0.198,0.09-0.684,0.109-0.883l0,0
			l0.596-3.476l1.256-6.631l0.09-0.462l0.439-2.246l0,0c0.043-0.177,0.064-0.33,0.109-0.507l0,0l-0.242-0.263l0,0
			c-1.301,0.55-2.664,0.969-4.053,0.991l0,0l-0.129,0.681L156.84,17.652L156.84,17.652L156.84,17.652z"/>
		<path fill-rule="evenodd" clip-rule="evenodd" fill="#363733" d="M164.305,26.016c0.266-1.232,0.879-3.235,2.287-3.235
			c0.596,0,0.926,0.529,0.926,1.143c0,0.772-0.375,1.456-0.814,2.006c-0.484,0.638-1.275,0.993-1.982,1.189
			c-0.238,0.042-0.48,0.11-0.703,0.198l0,0L164.305,26.016L164.305,26.016L164.305,26.016z M168.596,29.67
			c-0.789,0.597-2.244,1.521-3.193,1.521c-1.057,0-1.561-0.684-1.561-1.807c0-0.462,0.043-0.991,0.109-1.475
			c0.441-0.11,0.926-0.132,1.344-0.285c0.637-0.288,1.297-0.465,1.916-0.773c1.299-0.658,2.201-1.585,2.201-3.257
			c0-1.234-0.838-1.892-1.914-1.892c-0.463,0-1.037,0.176-1.477,0.351c-0.309,0.152-0.572,0.307-0.861,0.485
			c-0.352,0.219-0.658,0.417-0.986,0.658c-1.303,0.969-1.721,1.894-2.139,3.523c-0.197,0.814-0.48,2.269-0.48,3.104
			c0,1.807,0.813,2.798,2.484,2.798c1.83,0,3.281-1.32,4.758-2.311l0,0L168.596,29.67L168.596,29.67z"/>
		<path fill-rule="evenodd" clip-rule="evenodd" fill="#363733" d="M171.129,31.675l0.309,0.684l0,0
			c0.418-0.419,0.969-0.617,1.475-0.617c0.705,0,1.211,0.088,1.871,0.267l0,0l1.188,0.325l0,0c0.707,0.202,1.123,0.244,1.852,0.289
			c0.352,0,0.99,0,1.055-0.55c0.223-0.993,0.418-1.981,0.729-2.931l0,0l-0.553-0.044l-0.527,1.258l-0.152,0.044l-1.477-0.179
			l-1.123-0.152l0,0c-0.594-0.066-0.967-0.086-1.363,0c-0.375,0.066-0.75,0.198-1.301,0.462l0,0l6.605-7.506L180,21.898
			l-0.416-0.194l-0.088,0.132l0,0c-0.109,0.131-0.201,0.285-0.332,0.396c-0.219,0.198-0.594,0.286-0.879,0.286
			c-0.596,0-0.684,0-1.232-0.156l0,0l-2.049-0.505l0,0c-0.375-0.135-0.617-0.152-1.033-0.152c-0.311,0-0.621,0.018-0.904,0.152
			c-0.066,0.023-0.107,0.042-0.154,0.064l0,0l-0.924,3.128l0.592,0.066l0.311-0.77l0.088-0.243l0,0
			c0.043-0.044,0.043-0.112,0.066-0.156c0.305-0.042,0.572-0.042,0.855-0.022l0,0l1.479,0.223l0,0c0.35,0.044,0.727,0.066,1.1,0.066
			c0.418,0,0.816-0.088,1.211-0.267c0.088-0.064,0.176-0.086,0.264-0.131l0,0L171.129,31.675L171.129,31.675z"/>
	</g>
	<g>
		<path fill-rule="evenodd" clip-rule="evenodd" fill="#363733" d="M6.802,0.173H4.738v5.584l0,0c0,1.289-0.282,2.368-1.337,2.368
			c-1.056,0-1.339-1.079-1.339-2.368l0,0V0.173H0v6.015l0,0c0,2.663,1.375,3.854,3.401,3.854c2.024,0,3.4-1.191,3.4-3.854l0,0V0.173
			L6.802,0.173z"/>
		<polygon fill-rule="evenodd" clip-rule="evenodd" fill="#363733" points="8.57,9.884 10.472,9.884 10.409,3.243 10.436,3.243 
			13.147,9.884 15.712,9.884 15.712,0.173 13.823,0.173 13.858,6.765 13.836,6.765 11.207,0.173 8.57,0.173 8.57,9.884 		"/>
		<polygon fill-rule="evenodd" clip-rule="evenodd" fill="#363733" points="19.763,0.173 19.763,9.884 17.702,9.884 17.702,0.173 
			19.763,0.173 		"/>
		<polygon fill-rule="evenodd" clip-rule="evenodd" fill="#363733" points="23.703,9.884 26.27,9.884 28.896,0.173 26.786,0.173 
			25.054,7.793 25.03,7.793 23.313,0.173 21.101,0.173 23.703,9.884 		"/>
		<polygon fill-rule="evenodd" clip-rule="evenodd" fill="#363733" points="30.078,9.884 35.673,9.884 35.673,8.041 32.151,8.041 
			32.151,5.842 35.366,5.842 35.366,4.015 32.151,4.015 32.151,2.014 35.551,2.014 35.551,0.173 30.078,0.173 30.078,9.884 		"/>
		<path fill-rule="evenodd" clip-rule="evenodd" fill="#363733" d="M39.344,2.014h0.552l0,0c0.786,0,1.511,0.159,1.511,1.069
			c0,1.09-0.848,1.116-1.511,1.116l0,0h-0.552V2.014L39.344,2.014z M37.28,9.884h2.063V6.041h0.44l0,0
			c0.762,0,1.032,0.417,1.45,2.085l0,0l0.455,1.759h2.161l-0.762-2.653l0,0c-0.393-1.18-0.43-1.918-1.105-2.137l0,0V5.069l0,0
			c1.007-0.291,1.497-1.15,1.497-2.455c0-1.667-1.128-2.44-2.505-2.44l0,0H37.28V9.884L37.28,9.884L37.28,9.884z"/>
		<path fill-rule="evenodd" clip-rule="evenodd" fill="#363733" d="M45.003,9.624c0.689,0.281,1.597,0.419,2.321,0.419
			c1.718,0,3.41-0.676,3.41-3.19c0-3.513-3.669-2.455-3.669-4.027c0-0.848,0.858-0.896,1.388-0.896c0.589,0,1.188,0.135,1.717,0.44
			l0,0l0.138-1.998l0,0C49.792,0.148,49.054,0,48.307,0c-1.56,0-3.376,0.651-3.376,2.983c0,3.536,3.669,2.394,3.669,4.199
			c0,0.771-0.626,0.943-1.275,0.943c-0.861,0-1.609-0.282-2.137-0.637l0,0L45.003,9.624L45.003,9.624z"/>
		<polygon fill-rule="evenodd" clip-rule="evenodd" fill="#363733" points="54.528,0.173 54.528,9.884 52.456,9.884 52.456,0.173 
			54.528,0.173 		"/>
		<polygon fill-rule="evenodd" clip-rule="evenodd" fill="#363733" points="57.808,9.884 59.882,9.884 59.882,2.088 61.796,2.088 
			61.796,0.173 55.903,0.173 55.903,2.088 57.808,2.088 57.808,9.884 		"/>
		<path fill-rule="evenodd" clip-rule="evenodd" fill="#363733" d="M66.742,5.965h-1.938l0.994-3.792h0.022L66.742,5.965
			L66.742,5.965z M61.612,9.884h2.1l0.614-2.075h2.91l0.575,2.075h2.272l-2.996-9.711H64.56L61.612,9.884L61.612,9.884L61.612,9.884
			z"/>
		<path fill-rule="evenodd" clip-rule="evenodd" fill="#363733" d="M71.138,9.624c0.688,0.281,1.596,0.419,2.321,0.419
			c1.719,0,3.413-0.676,3.413-3.19c0-3.513-3.671-2.455-3.671-4.027c0-0.848,0.871-0.896,1.387-0.896c0.59,0,1.19,0.135,1.73,0.44
			l0,0l0.137-1.998l0,0C75.926,0.148,75.189,0,74.44,0c-1.545,0-3.376,0.651-3.376,2.983c0,3.536,3.672,2.394,3.672,4.199
			c0,0.771-0.627,0.943-1.277,0.943c-0.859,0-1.608-0.282-2.137-0.637l0,0L71.138,9.624L71.138,9.624z"/>
	</g>
</g>
</svg>
